<svg xmlns="http://www.w3.org/2000/svg" xmlns:xlink="http://www.w3.org/1999/xlink" width="959" zoomAndPan="magnify" viewBox="0 0 719.25 195.000001" height="260" preserveAspectRatio="xMidYMid meet" version="1.0"><defs><g/><clipPath id="efc042cab7"><path d="M 6.609375 147.671875 L 220.449219 147.671875 L 220.449219 173.445312 L 6.609375 173.445312 Z M 6.609375 147.671875 " clip-rule="nonzero"/></clipPath><clipPath id="d535fa55ce"><path d="M 1 0.792969 L 214.21875 0.792969 L 214.21875 26.445312 L 1 26.445312 Z M 1 0.792969 " clip-rule="nonzero"/></clipPath><clipPath id="088a825c6f"><rect x="0" width="215" y="0" height="27"/></clipPath><clipPath id="735f7a5ed4"><path d="M 0.234375 36 L 648.269531 36 L 648.269531 165 L 0.234375 165 Z M 0.234375 36 " clip-rule="nonzero"/></clipPath><clipPath id="44a92c71d3"><rect x="0" width="649" y="0" height="129"/></clipPath><clipPath id="e8ee2e9b27"><path d="M 22.601562 0 L 587 0 L 587 68.261719 L 22.601562 68.261719 Z M 22.601562 0 " clip-rule="nonzero"/></clipPath><clipPath id="e3377ee817"><path d="M 0.601562 0.207031 L 564 0.207031 L 564 68.261719 L 0.601562 68.261719 Z M 0.601562 0.207031 " clip-rule="nonzero"/></clipPath><clipPath id="3994f7988a"><rect x="0" width="565" y="0" height="69"/></clipPath><clipPath id="10420f2521"><path d="M 225 144 L 645 144 L 645 176.933594 L 225 176.933594 Z M 225 144 " clip-rule="nonzero"/></clipPath><clipPath id="5215bf04f8"><rect x="0" width="420" y="0" height="33"/></clipPath><clipPath id="d8ca4fa7b1"><rect x="0" width="649" y="0" height="177"/></clipPath></defs><g transform="matrix(1, 0, 0, 1, 38, 0.000000000000040532)"><g clip-path="url(#d8ca4fa7b1)"><g clip-path="url(#efc042cab7)"><g transform="matrix(1, 0, 0, 1, 6, 147)"><g clip-path="url(#088a825c6f)"><g clip-path="url(#d535fa55ce)"><path fill="#40f1f2" d="M 11.867188 2.5 C 10.675781 1.3125 9.070312 0.683594 7.460938 0.683594 C 5.851562 0.683594 4.246094 1.3125 3.054688 2.5 C 0.609375 4.949219 0.609375 8.933594 3.054688 11.378906 C 4.246094 12.570312 5.851562 13.199219 7.460938 13.199219 C 8.71875 13.199219 9.976562 12.777344 11.097656 12.011719 L 21.097656 22.078125 L 203.3125 22.078125 C 203.800781 24.597656 206.039062 26.554688 208.695312 26.554688 C 211.769531 26.554688 214.21875 24.105469 214.21875 21.03125 C 214.21875 17.953125 211.769531 15.507812 208.695312 15.507812 C 206.039062 15.507812 203.800781 17.464844 203.3125 19.980469 L 22.003906 19.980469 L 12.566406 10.542969 C 14.242188 8.09375 14.035156 4.667969 11.867188 2.5 Z M 4.523438 9.84375 C 2.917969 8.234375 2.917969 5.578125 4.523438 3.96875 C 5.292969 3.199219 6.34375 2.78125 7.460938 2.78125 C 8.578125 2.78125 9.628906 3.199219 10.398438 3.96875 C 12.007812 5.578125 12.007812 8.234375 10.398438 9.84375 C 9.628906 10.613281 8.578125 11.03125 7.460938 11.03125 C 6.34375 11.101562 5.292969 10.613281 4.523438 9.84375 Z M 4.523438 9.84375 " fill-opacity="1" fill-rule="nonzero"/></g></g></g></g><g clip-path="url(#735f7a5ed4)"><g transform="matrix(1, 0, 0, 1, 0, 36)"><g clip-path="url(#44a92c71d3)"><g fill="#40f1f2" fill-opacity="1"><g transform="translate(0.724709, 102.080447)"><g><path d="M 31.875 -7.9375 C 31.550781 -6.28125 30.71875 -5.070312 29.375 -4.3125 L 23.15625 -0.765625 C 22.332031 -0.253906 21.441406 0 20.484375 0 L 8.046875 0 L 17.609375 -54.359375 C 17.796875 -55.953125 18.625 -57.164062 20.09375 -58 L 26.3125 -61.53125 C 27.144531 -62.039062 28.039062 -62.296875 29 -62.296875 L 41.4375 -62.296875 Z M 31.875 -7.9375 "/></g></g></g><g fill="#40f1f2" fill-opacity="1"><g transform="translate(37.185046, 102.080447)"><g><path d="M 83.9375 -62.296875 L 81.34375 -47.28125 L 42.203125 -47.28125 C 40.992188 -47.28125 39.828125 -46.832031 38.703125 -45.9375 C 37.585938 -45.039062 36.90625 -43.925781 36.65625 -42.59375 L 32.640625 -19.71875 C 32.378906 -18.4375 32.644531 -17.332031 33.4375 -16.40625 C 34.238281 -15.488281 35.3125 -15.03125 36.65625 -15.03125 L 75.609375 -15.03125 L 73.015625 0 L 25.453125 0 C 23.410156 0 21.878906 -0.476562 20.859375 -1.4375 L 11.109375 -8.328125 C 10.085938 -9.160156 9.367188 -10.195312 8.953125 -11.4375 C 8.535156 -12.675781 8.453125 -13.96875 8.703125 -15.3125 L 13.78125 -44.21875 C 14.863281 -50.40625 17.765625 -54.960938 22.484375 -57.890625 C 27.210938 -60.828125 33.148438 -62.296875 40.296875 -62.296875 Z M 83.9375 -62.296875 "/></g></g></g><g fill="#40f1f2" fill-opacity="1"><g transform="translate(113.45519, 102.080447)"><g><path d="M 80.390625 0 L 57.90625 0 L 59.90625 -11.671875 L 38.1875 -11.671875 L 31.875 -17.03125 L 26.703125 0 L 4.015625 0 L 18.1875 -46.984375 C 18.5 -48.453125 19.070312 -49.804688 19.90625 -51.046875 C 20.738281 -52.296875 21.757812 -53.335938 22.96875 -54.171875 L 35.40625 -60.875 C 36.8125 -61.820312 38.441406 -62.296875 40.296875 -62.296875 L 68.90625 -62.296875 C 69.800781 -62.296875 70.628906 -62.1875 71.390625 -61.96875 C 72.160156 -61.75 72.832031 -61.382812 73.40625 -60.875 L 85.65625 -51.203125 C 86.738281 -50.367188 87.488281 -49.328125 87.90625 -48.078125 C 88.320312 -46.835938 88.398438 -45.519531 88.140625 -44.125 Z M 40 -42.59375 L 34.546875 -25.359375 L 62.296875 -25.359375 L 65.359375 -42.59375 C 65.617188 -43.863281 65.347656 -44.960938 64.546875 -45.890625 C 63.753906 -46.816406 62.6875 -47.28125 61.34375 -47.28125 L 45.84375 -47.28125 C 44.5 -47.28125 43.300781 -46.816406 42.25 -45.890625 C 41.195312 -44.960938 40.445312 -43.863281 40 -42.59375 Z M 40 -42.59375 "/></g></g></g><g fill="#40f1f2" fill-opacity="1"><g transform="translate(197.763857, 102.080447)"><g><path d="M 12.34375 -47.28125 L 14.9375 -62.296875 L 88.90625 -62.296875 L 86.328125 -47.28125 L 60.578125 -47.28125 L 53.59375 -7.9375 C 53.269531 -6.28125 52.410156 -5.070312 51.015625 -4.3125 L 44.890625 -0.765625 C 44.054688 -0.253906 43.160156 0 42.203125 0 L 29.765625 0 L 38.09375 -47.28125 Z M 12.34375 -47.28125 "/></g></g></g><g fill="#40f1f2" fill-opacity="1"><g transform="translate(277.67048, 102.080447)"><g><path d="M 28.515625 0 L 6.03125 0 L 16.9375 -62.296875 L 65.171875 -62.296875 C 72.378906 -62.296875 77.816406 -60.828125 81.484375 -57.890625 C 85.160156 -54.960938 86.457031 -50.40625 85.375 -44.21875 L 83.734375 -35.21875 C 83.671875 -34.519531 83.460938 -33.878906 83.109375 -33.296875 C 82.765625 -32.722656 82.304688 -32.085938 81.734375 -31.390625 L 75.125 -25.75 C 73.144531 -24.019531 71.101562 -23.15625 69 -23.15625 L 62.96875 -23.15625 L 80.109375 -0.578125 L 80.015625 0 L 52.25 0 L 33.6875 -29.484375 Z M 36.84375 -47.28125 L 34.359375 -33.203125 L 55.984375 -33.203125 C 57.328125 -33.203125 58.539062 -33.679688 59.625 -34.640625 C 60.707031 -35.597656 61.34375 -36.6875 61.53125 -37.90625 L 62.40625 -42.59375 C 62.65625 -43.925781 62.394531 -45.039062 61.625 -45.9375 C 60.863281 -46.832031 59.847656 -47.28125 58.578125 -47.28125 Z M 36.84375 -47.28125 "/></g></g></g><g fill="#40f1f2" fill-opacity="1"><g transform="translate(356.907236, 102.080447)"><g><path d="M 25.078125 0 C 24.117188 0 23.238281 -0.109375 22.4375 -0.328125 C 21.644531 -0.554688 20.960938 -0.925781 20.390625 -1.4375 L 10.71875 -8.328125 C 9.695312 -9.160156 8.976562 -10.195312 8.5625 -11.4375 C 8.144531 -12.675781 8.066406 -13.96875 8.328125 -15.3125 L 13.40625 -44.21875 C 14.488281 -50.40625 17.375 -54.960938 22.0625 -57.890625 C 26.75 -60.828125 32.664062 -62.296875 39.8125 -62.296875 L 70.53125 -62.296875 C 72.570312 -62.296875 74.101562 -61.820312 75.125 -60.875 L 84.890625 -54.171875 C 87.054688 -52.441406 87.882812 -50.046875 87.375 -46.984375 L 82.3125 -18.09375 C 81.21875 -11.90625 78.328125 -7.34375 73.640625 -4.40625 C 68.953125 -1.46875 62.972656 0 55.703125 0 Z M 31.578125 -19.71875 C 31.328125 -18.4375 31.582031 -17.332031 32.34375 -16.40625 C 33.113281 -15.488281 34.164062 -15.03125 35.5 -15.03125 L 54.546875 -15.03125 C 55.828125 -15.03125 57.007812 -15.488281 58.09375 -16.40625 C 59.175781 -17.332031 59.847656 -18.4375 60.109375 -19.71875 L 64.125 -42.59375 C 64.375 -43.925781 64.113281 -45.039062 63.34375 -45.9375 C 62.582031 -46.832031 61.535156 -47.28125 60.203125 -47.28125 L 41.15625 -47.28125 C 39.875 -47.28125 38.691406 -46.832031 37.609375 -45.9375 C 36.523438 -45.039062 35.859375 -43.925781 35.609375 -42.59375 Z M 31.578125 -19.71875 "/></g></g></g><g fill="#40f1f2" fill-opacity="1"><g transform="translate(439.589034, 102.080447)"><g><path d="M 28.515625 0 L 6.03125 0 L 16.9375 -62.296875 L 37.421875 -62.296875 L 64.59375 -25.359375 L 71.109375 -62.296875 L 93.59375 -62.296875 L 84.03125 -7.9375 C 83.707031 -6.28125 82.84375 -5.070312 81.4375 -4.3125 L 75.21875 -0.765625 C 74.394531 -0.253906 73.535156 0 72.640625 0 L 62.203125 0 L 34.734375 -35.40625 Z M 28.515625 0 "/></g></g></g><g fill="#40f1f2" fill-opacity="1"><g transform="translate(526.194436, 102.080447)"><g><path d="M 31.875 -7.9375 C 31.550781 -6.28125 30.71875 -5.070312 29.375 -4.3125 L 23.15625 -0.765625 C 22.332031 -0.253906 21.441406 0 20.484375 0 L 8.046875 0 L 17.609375 -54.359375 C 17.796875 -55.953125 18.625 -57.164062 20.09375 -58 L 26.3125 -61.53125 C 27.144531 -62.039062 28.039062 -62.296875 29 -62.296875 L 41.4375 -62.296875 Z M 31.875 -7.9375 "/></g></g></g><g fill="#40f1f2" fill-opacity="1"><g transform="translate(562.654784, 102.080447)"><g><path d="M 83.9375 -62.296875 L 81.34375 -47.28125 L 42.203125 -47.28125 C 40.992188 -47.28125 39.828125 -46.832031 38.703125 -45.9375 C 37.585938 -45.039062 36.90625 -43.925781 36.65625 -42.59375 L 32.640625 -19.71875 C 32.378906 -18.4375 32.644531 -17.332031 33.4375 -16.40625 C 34.238281 -15.488281 35.3125 -15.03125 36.65625 -15.03125 L 75.609375 -15.03125 L 73.015625 0 L 25.453125 0 C 23.410156 0 21.878906 -0.476562 20.859375 -1.4375 L 11.109375 -8.328125 C 10.085938 -9.160156 9.367188 -10.195312 8.953125 -11.4375 C 8.535156 -12.675781 8.453125 -13.96875 8.703125 -15.3125 L 13.78125 -44.21875 C 14.863281 -50.40625 17.765625 -54.960938 22.484375 -57.890625 C 27.210938 -60.828125 33.148438 -62.296875 40.296875 -62.296875 Z M 83.9375 -62.296875 "/></g></g></g></g></g></g><g clip-path="url(#e8ee2e9b27)"><g transform="matrix(1, 0, 0, 1, 22, 0.000000000000040532)"><g clip-path="url(#3994f7988a)"><g clip-path="url(#e3377ee817)"><path fill="#40f1f2" d="M 535.5625 4.84375 C 538.703125 1.699219 542.957031 0.0351562 547.207031 0.0351562 C 551.457031 0.0351562 555.710938 1.699219 558.851562 4.84375 C 565.324219 11.3125 565.324219 21.847656 558.851562 28.320312 C 555.710938 31.460938 551.457031 33.125 547.207031 33.125 C 543.878906 33.125 540.550781 32.015625 537.59375 29.980469 L 511.160156 56.601562 L 29.4375 56.601562 C 28.144531 63.253906 22.230469 68.429688 15.203125 68.429688 C 7.070312 68.429688 0.601562 61.960938 0.601562 53.828125 C 0.601562 45.695312 7.070312 39.226562 15.203125 39.226562 C 22.230469 39.226562 28.144531 44.402344 29.4375 51.054688 L 508.757812 51.054688 L 533.714844 26.101562 C 529.277344 19.628906 529.832031 10.574219 535.5625 4.84375 Z M 554.972656 24.253906 C 559.222656 20 559.222656 12.976562 554.972656 8.722656 C 552.9375 6.691406 550.164062 5.582031 547.207031 5.582031 C 544.25 5.582031 541.476562 6.691406 539.445312 8.722656 C 535.191406 12.976562 535.191406 20 539.445312 24.253906 C 541.476562 26.285156 544.25 27.394531 547.207031 27.394531 C 550.164062 27.578125 552.9375 26.285156 554.972656 24.253906 Z M 554.972656 24.253906 " fill-opacity="1" fill-rule="nonzero"/></g></g></g></g><g clip-path="url(#10420f2521)"><g transform="matrix(1, 0, 0, 1, 225, 144)"><g clip-path="url(#5215bf04f8)"><g fill="#40f1f2" fill-opacity="1"><g transform="translate(0.543035, 25.990378)"><g><path d="M 9.34375 -11.984375 L 8.9375 -9.6875 L 19.171875 -9.6875 L 18.53125 -6.109375 L 8.296875 -6.109375 L 8.109375 -5 C 8.035156 -4.675781 8.097656 -4.394531 8.296875 -4.15625 C 8.503906 -3.925781 8.78125 -3.8125 9.125 -3.8125 L 19.140625 -3.8125 L 18.484375 0 L 6.453125 0 C 5.929688 0 5.546875 -0.117188 5.296875 -0.359375 L 2.8125 -2.109375 C 2.550781 -2.316406 2.367188 -2.578125 2.265625 -2.890625 C 2.160156 -3.210938 2.140625 -3.539062 2.203125 -3.875 L 4.296875 -15.796875 L 21.25 -15.796875 L 20.59375 -11.984375 Z M 9.34375 -11.984375 "/></g></g></g><g fill="#40f1f2" fill-opacity="1"><g transform="translate(19.86312, 25.990378)"><g><path d="M 10.09375 -15.796875 L 8.203125 -5 C 8.140625 -4.675781 8.207031 -4.394531 8.40625 -4.15625 C 8.613281 -3.925781 8.882812 -3.8125 9.21875 -3.8125 L 17.71875 -3.8125 L 17.0625 0 L 6.546875 0 C 6.328125 0 6.113281 -0.0234375 5.90625 -0.078125 C 5.707031 -0.140625 5.535156 -0.234375 5.390625 -0.359375 L 2.90625 -2.109375 C 2.65625 -2.316406 2.472656 -2.578125 2.359375 -2.890625 C 2.253906 -3.210938 2.238281 -3.539062 2.3125 -3.875 L 4.390625 -15.796875 Z M 10.09375 -15.796875 "/></g></g></g><g fill="#40f1f2" fill-opacity="1"><g transform="translate(37.411386, 25.990378)"><g><path d="M 9.34375 -11.984375 L 8.9375 -9.6875 L 19.171875 -9.6875 L 18.53125 -6.109375 L 8.296875 -6.109375 L 8.109375 -5 C 8.035156 -4.675781 8.097656 -4.394531 8.296875 -4.15625 C 8.503906 -3.925781 8.78125 -3.8125 9.125 -3.8125 L 19.140625 -3.8125 L 18.484375 0 L 6.453125 0 C 5.929688 0 5.546875 -0.117188 5.296875 -0.359375 L 2.8125 -2.109375 C 2.550781 -2.316406 2.367188 -2.578125 2.265625 -2.890625 C 2.160156 -3.210938 2.140625 -3.539062 2.203125 -3.875 L 4.296875 -15.796875 L 21.25 -15.796875 L 20.59375 -11.984375 Z M 9.34375 -11.984375 "/></g></g></g><g fill="#40f1f2" fill-opacity="1"><g transform="translate(56.731468, 25.990378)"><g><path d="M 21.28125 -15.796875 L 20.625 -11.984375 L 10.703125 -11.984375 C 10.390625 -11.984375 10.09375 -11.867188 9.8125 -11.640625 C 9.53125 -11.421875 9.359375 -11.140625 9.296875 -10.796875 L 8.28125 -5 C 8.207031 -4.675781 8.269531 -4.394531 8.46875 -4.15625 C 8.675781 -3.925781 8.953125 -3.8125 9.296875 -3.8125 L 19.171875 -3.8125 L 18.515625 0 L 6.453125 0 C 5.929688 0 5.546875 -0.117188 5.296875 -0.359375 L 2.8125 -2.109375 C 2.550781 -2.316406 2.367188 -2.578125 2.265625 -2.890625 C 2.160156 -3.210938 2.140625 -3.539062 2.203125 -3.875 L 3.5 -11.203125 C 3.769531 -12.773438 4.503906 -13.929688 5.703125 -14.671875 C 6.898438 -15.421875 8.40625 -15.796875 10.21875 -15.796875 Z M 21.28125 -15.796875 "/></g></g></g><g fill="#40f1f2" fill-opacity="1"><g transform="translate(76.075825, 25.990378)"><g><path d="M 3.125 -11.984375 L 3.78125 -15.796875 L 22.546875 -15.796875 L 21.890625 -11.984375 L 15.359375 -11.984375 L 13.59375 -2.015625 C 13.507812 -1.597656 13.289062 -1.289062 12.9375 -1.09375 L 11.375 -0.1875 C 11.164062 -0.0625 10.941406 0 10.703125 0 L 7.546875 0 L 9.65625 -11.984375 Z M 3.125 -11.984375 "/></g></g></g><g fill="#40f1f2" fill-opacity="1"><g transform="translate(96.342506, 25.990378)"><g><path d="M 7.234375 0 L 1.53125 0 L 4.296875 -15.796875 L 16.53125 -15.796875 C 18.351562 -15.796875 19.726562 -15.421875 20.65625 -14.671875 C 21.59375 -13.929688 21.921875 -12.773438 21.640625 -11.203125 L 21.234375 -8.9375 C 21.210938 -8.75 21.15625 -8.582031 21.0625 -8.4375 C 20.976562 -8.289062 20.863281 -8.128906 20.71875 -7.953125 L 19.046875 -6.53125 C 18.546875 -6.09375 18.03125 -5.875 17.5 -5.875 L 15.96875 -5.875 L 20.3125 -0.140625 L 20.28125 0 L 13.25 0 L 8.546875 -7.46875 Z M 9.34375 -11.984375 L 8.71875 -8.421875 L 14.203125 -8.421875 C 14.535156 -8.421875 14.835938 -8.539062 15.109375 -8.78125 C 15.390625 -9.019531 15.554688 -9.296875 15.609375 -9.609375 L 15.828125 -10.796875 C 15.890625 -11.140625 15.820312 -11.421875 15.625 -11.640625 C 15.425781 -11.867188 15.164062 -11.984375 14.84375 -11.984375 Z M 9.34375 -11.984375 "/></g></g></g><g fill="#40f1f2" fill-opacity="1"><g transform="translate(116.439283, 25.990378)"><g><path d="M 6.359375 0 C 6.117188 0 5.894531 -0.0234375 5.6875 -0.078125 C 5.488281 -0.140625 5.316406 -0.234375 5.171875 -0.359375 L 2.71875 -2.109375 C 2.457031 -2.316406 2.273438 -2.578125 2.171875 -2.890625 C 2.066406 -3.210938 2.046875 -3.539062 2.109375 -3.875 L 3.390625 -11.203125 C 3.671875 -12.773438 4.40625 -13.929688 5.59375 -14.671875 C 6.78125 -15.421875 8.28125 -15.796875 10.09375 -15.796875 L 17.890625 -15.796875 C 18.398438 -15.796875 18.785156 -15.675781 19.046875 -15.4375 L 21.53125 -13.734375 C 22.070312 -13.296875 22.28125 -12.691406 22.15625 -11.921875 L 20.875 -4.59375 C 20.59375 -3.019531 19.859375 -1.859375 18.671875 -1.109375 C 17.484375 -0.367188 15.96875 0 14.125 0 Z M 8 -5 C 7.9375 -4.675781 8.003906 -4.394531 8.203125 -4.15625 C 8.398438 -3.925781 8.664062 -3.8125 9 -3.8125 L 13.828125 -3.8125 C 14.148438 -3.8125 14.445312 -3.925781 14.71875 -4.15625 C 15 -4.394531 15.171875 -4.675781 15.234375 -5 L 16.265625 -10.796875 C 16.328125 -11.140625 16.257812 -11.421875 16.0625 -11.640625 C 15.863281 -11.867188 15.597656 -11.984375 15.265625 -11.984375 L 10.4375 -11.984375 C 10.113281 -11.984375 9.8125 -11.867188 9.53125 -11.640625 C 9.257812 -11.421875 9.09375 -11.140625 9.03125 -10.796875 Z M 8 -5 "/></g></g></g><g fill="#40f1f2" fill-opacity="1"><g transform="translate(137.409824, 25.990378)"><g><path d="M 7.234375 0 L 1.53125 0 L 4.296875 -15.796875 L 9.484375 -15.796875 L 16.375 -6.4375 L 18.03125 -15.796875 L 23.734375 -15.796875 L 21.3125 -2.015625 C 21.226562 -1.597656 21.007812 -1.289062 20.65625 -1.09375 L 19.078125 -0.1875 C 18.859375 -0.0625 18.640625 0 18.421875 0 L 15.765625 0 L 8.8125 -8.984375 Z M 7.234375 0 "/></g></g></g><g fill="#40f1f2" fill-opacity="1"><g transform="translate(159.375507, 25.990378)"><g><path d="M 8.078125 -2.015625 C 7.992188 -1.597656 7.785156 -1.289062 7.453125 -1.09375 L 5.875 -0.1875 C 5.664062 -0.0625 5.4375 0 5.1875 0 L 2.03125 0 L 4.46875 -13.78125 C 4.507812 -14.1875 4.71875 -14.492188 5.09375 -14.703125 L 6.671875 -15.609375 C 6.878906 -15.734375 7.109375 -15.796875 7.359375 -15.796875 L 10.5 -15.796875 Z M 8.078125 -2.015625 "/></g></g></g><g fill="#40f1f2" fill-opacity="1"><g transform="translate(168.622915, 25.990378)"><g><path d="M 21.28125 -15.796875 L 20.625 -11.984375 L 10.703125 -11.984375 C 10.390625 -11.984375 10.09375 -11.867188 9.8125 -11.640625 C 9.53125 -11.421875 9.359375 -11.140625 9.296875 -10.796875 L 8.28125 -5 C 8.207031 -4.675781 8.269531 -4.394531 8.46875 -4.15625 C 8.675781 -3.925781 8.953125 -3.8125 9.296875 -3.8125 L 19.171875 -3.8125 L 18.515625 0 L 6.453125 0 C 5.929688 0 5.546875 -0.117188 5.296875 -0.359375 L 2.8125 -2.109375 C 2.550781 -2.316406 2.367188 -2.578125 2.265625 -2.890625 C 2.160156 -3.210938 2.140625 -3.539062 2.203125 -3.875 L 3.5 -11.203125 C 3.769531 -12.773438 4.503906 -13.929688 5.703125 -14.671875 C 6.898438 -15.421875 8.40625 -15.796875 10.21875 -15.796875 Z M 21.28125 -15.796875 "/></g></g></g><g fill="#40f1f2" fill-opacity="1"><g transform="translate(187.967283, 25.990378)"><g><path d="M 20.390625 0 L 14.6875 0 L 15.1875 -2.953125 L 9.6875 -2.953125 L 8.078125 -4.3125 L 6.765625 0 L 1.015625 0 L 4.609375 -11.921875 C 4.691406 -12.285156 4.835938 -12.625 5.046875 -12.9375 C 5.253906 -13.257812 5.515625 -13.523438 5.828125 -13.734375 L 8.984375 -15.4375 C 9.335938 -15.675781 9.75 -15.796875 10.21875 -15.796875 L 17.46875 -15.796875 C 17.695312 -15.796875 17.90625 -15.765625 18.09375 -15.703125 C 18.289062 -15.648438 18.460938 -15.5625 18.609375 -15.4375 L 21.71875 -12.984375 C 21.988281 -12.773438 22.175781 -12.507812 22.28125 -12.1875 C 22.394531 -11.875 22.414062 -11.539062 22.34375 -11.1875 Z M 10.140625 -10.796875 L 8.765625 -6.4375 L 15.796875 -6.4375 L 16.578125 -10.796875 C 16.640625 -11.117188 16.566406 -11.394531 16.359375 -11.625 C 16.160156 -11.863281 15.890625 -11.984375 15.546875 -11.984375 L 11.625 -11.984375 C 11.28125 -11.984375 10.972656 -11.863281 10.703125 -11.625 C 10.441406 -11.394531 10.253906 -11.117188 10.140625 -10.796875 Z M 10.140625 -10.796875 "/></g></g></g><g fill="#40f1f2" fill-opacity="1"><g transform="translate(209.350449, 25.990378)"><g/></g></g><g fill="#40f1f2" fill-opacity="1"><g transform="translate(219.010481, 25.990378)"><g><path d="M 20.390625 0 L 14.6875 0 L 15.1875 -2.953125 L 9.6875 -2.953125 L 8.078125 -4.3125 L 6.765625 0 L 1.015625 0 L 4.609375 -11.921875 C 4.691406 -12.285156 4.835938 -12.625 5.046875 -12.9375 C 5.253906 -13.257812 5.515625 -13.523438 5.828125 -13.734375 L 8.984375 -15.4375 C 9.335938 -15.675781 9.75 -15.796875 10.21875 -15.796875 L 17.46875 -15.796875 C 17.695312 -15.796875 17.90625 -15.765625 18.09375 -15.703125 C 18.289062 -15.648438 18.460938 -15.5625 18.609375 -15.4375 L 21.71875 -12.984375 C 21.988281 -12.773438 22.175781 -12.507812 22.28125 -12.1875 C 22.394531 -11.875 22.414062 -11.539062 22.34375 -11.1875 Z M 10.140625 -10.796875 L 8.765625 -6.4375 L 15.796875 -6.4375 L 16.578125 -10.796875 C 16.640625 -11.117188 16.566406 -11.394531 16.359375 -11.625 C 16.160156 -11.863281 15.890625 -11.984375 15.546875 -11.984375 L 11.625 -11.984375 C 11.28125 -11.984375 10.972656 -11.863281 10.703125 -11.625 C 10.441406 -11.394531 10.253906 -11.117188 10.140625 -10.796875 Z M 10.140625 -10.796875 "/></g></g></g><g fill="#40f1f2" fill-opacity="1"><g transform="translate(240.393624, 25.990378)"><g><path d="M 18.296875 -15.796875 L 24 -15.796875 L 22.03125 -4.609375 C 21.96875 -4.191406 21.8125 -3.84375 21.5625 -3.5625 C 21.320312 -3.289062 21.066406 -3.066406 20.796875 -2.890625 L 16.796875 -0.359375 C 16.597656 -0.234375 16.394531 -0.140625 16.1875 -0.078125 C 15.988281 -0.0234375 15.773438 0 15.546875 0 L 4.5625 0 C 4 0 3.507812 -0.132812 3.09375 -0.40625 C 2.675781 -0.6875 2.375 -1.054688 2.1875 -1.515625 C 2.007812 -1.972656 1.96875 -2.476562 2.0625 -3.03125 L 4.296875 -15.796875 L 10 -15.796875 L 8.109375 -5 C 8.035156 -4.675781 8.09375 -4.394531 8.28125 -4.15625 C 8.46875 -3.925781 8.734375 -3.8125 9.078125 -3.8125 L 15 -3.8125 C 15.320312 -3.8125 15.617188 -3.925781 15.890625 -4.15625 C 16.171875 -4.394531 16.34375 -4.675781 16.40625 -5 Z M 18.296875 -15.796875 "/></g></g></g><g fill="#40f1f2" fill-opacity="1"><g transform="translate(262.626297, 25.990378)"><g><path d="M 3.125 -11.984375 L 3.78125 -15.796875 L 22.546875 -15.796875 L 21.890625 -11.984375 L 15.359375 -11.984375 L 13.59375 -2.015625 C 13.507812 -1.597656 13.289062 -1.289062 12.9375 -1.09375 L 11.375 -0.1875 C 11.164062 -0.0625 10.941406 0 10.703125 0 L 7.546875 0 L 9.65625 -11.984375 Z M 3.125 -11.984375 "/></g></g></g><g fill="#40f1f2" fill-opacity="1"><g transform="translate(282.892966, 25.990378)"><g><path d="M 6.359375 0 C 6.117188 0 5.894531 -0.0234375 5.6875 -0.078125 C 5.488281 -0.140625 5.316406 -0.234375 5.171875 -0.359375 L 2.71875 -2.109375 C 2.457031 -2.316406 2.273438 -2.578125 2.171875 -2.890625 C 2.066406 -3.210938 2.046875 -3.539062 2.109375 -3.875 L 3.390625 -11.203125 C 3.671875 -12.773438 4.40625 -13.929688 5.59375 -14.671875 C 6.78125 -15.421875 8.28125 -15.796875 10.09375 -15.796875 L 17.890625 -15.796875 C 18.398438 -15.796875 18.785156 -15.675781 19.046875 -15.4375 L 21.53125 -13.734375 C 22.070312 -13.296875 22.28125 -12.691406 22.15625 -11.921875 L 20.875 -4.59375 C 20.59375 -3.019531 19.859375 -1.859375 18.671875 -1.109375 C 17.484375 -0.367188 15.96875 0 14.125 0 Z M 8 -5 C 7.9375 -4.675781 8.003906 -4.394531 8.203125 -4.15625 C 8.398438 -3.925781 8.664062 -3.8125 9 -3.8125 L 13.828125 -3.8125 C 14.148438 -3.8125 14.445312 -3.925781 14.71875 -4.15625 C 15 -4.394531 15.171875 -4.675781 15.234375 -5 L 16.265625 -10.796875 C 16.328125 -11.140625 16.257812 -11.421875 16.0625 -11.640625 C 15.863281 -11.867188 15.597656 -11.984375 15.265625 -11.984375 L 10.4375 -11.984375 C 10.113281 -11.984375 9.8125 -11.867188 9.53125 -11.640625 C 9.257812 -11.421875 9.09375 -11.140625 9.03125 -10.796875 Z M 8 -5 "/></g></g></g><g fill="#40f1f2" fill-opacity="1"><g transform="translate(303.863531, 25.990378)"><g><path d="M 12.84375 0 L 10.875 0 L 8.65625 -9.140625 L 8.203125 -5.625 L 7.234375 0 L 1.53125 0 L 4.296875 -15.796875 L 10.5 -15.796875 L 12.84375 -5.578125 L 18.734375 -15.796875 L 24.9375 -15.796875 L 22.171875 0 L 16.46875 0 L 17.453125 -5.625 L 18.25 -9.140625 Z M 12.84375 0 "/></g></g></g><g fill="#40f1f2" fill-opacity="1"><g transform="translate(327.042785, 25.990378)"><g><path d="M 6.359375 0 C 6.117188 0 5.894531 -0.0234375 5.6875 -0.078125 C 5.488281 -0.140625 5.316406 -0.234375 5.171875 -0.359375 L 2.71875 -2.109375 C 2.457031 -2.316406 2.273438 -2.578125 2.171875 -2.890625 C 2.066406 -3.210938 2.046875 -3.539062 2.109375 -3.875 L 3.390625 -11.203125 C 3.671875 -12.773438 4.40625 -13.929688 5.59375 -14.671875 C 6.78125 -15.421875 8.28125 -15.796875 10.09375 -15.796875 L 17.890625 -15.796875 C 18.398438 -15.796875 18.785156 -15.675781 19.046875 -15.4375 L 21.53125 -13.734375 C 22.070312 -13.296875 22.28125 -12.691406 22.15625 -11.921875 L 20.875 -4.59375 C 20.59375 -3.019531 19.859375 -1.859375 18.671875 -1.109375 C 17.484375 -0.367188 15.96875 0 14.125 0 Z M 8 -5 C 7.9375 -4.675781 8.003906 -4.394531 8.203125 -4.15625 C 8.398438 -3.925781 8.664062 -3.8125 9 -3.8125 L 13.828125 -3.8125 C 14.148438 -3.8125 14.445312 -3.925781 14.71875 -4.15625 C 15 -4.394531 15.171875 -4.675781 15.234375 -5 L 16.265625 -10.796875 C 16.328125 -11.140625 16.257812 -11.421875 16.0625 -11.640625 C 15.863281 -11.867188 15.597656 -11.984375 15.265625 -11.984375 L 10.4375 -11.984375 C 10.113281 -11.984375 9.8125 -11.867188 9.53125 -11.640625 C 9.257812 -11.421875 9.09375 -11.140625 9.03125 -10.796875 Z M 8 -5 "/></g></g></g><g fill="#40f1f2" fill-opacity="1"><g transform="translate(348.013326, 25.990378)"><g><path d="M 3.125 -11.984375 L 3.78125 -15.796875 L 22.546875 -15.796875 L 21.890625 -11.984375 L 15.359375 -11.984375 L 13.59375 -2.015625 C 13.507812 -1.597656 13.289062 -1.289062 12.9375 -1.09375 L 11.375 -0.1875 C 11.164062 -0.0625 10.941406 0 10.703125 0 L 7.546875 0 L 9.65625 -11.984375 Z M 3.125 -11.984375 "/></g></g></g><g fill="#40f1f2" fill-opacity="1"><g transform="translate(368.279995, 25.990378)"><g><path d="M 7.234375 0 L 1.53125 0 L 4.296875 -15.796875 L 16.53125 -15.796875 C 18.351562 -15.796875 19.726562 -15.421875 20.65625 -14.671875 C 21.59375 -13.929688 21.921875 -12.773438 21.640625 -11.203125 L 21.234375 -8.9375 C 21.210938 -8.75 21.15625 -8.582031 21.0625 -8.4375 C 20.976562 -8.289062 20.863281 -8.128906 20.71875 -7.953125 L 19.046875 -6.53125 C 18.546875 -6.09375 18.03125 -5.875 17.5 -5.875 L 15.96875 -5.875 L 20.3125 -0.140625 L 20.28125 0 L 13.25 0 L 8.546875 -7.46875 Z M 9.34375 -11.984375 L 8.71875 -8.421875 L 14.203125 -8.421875 C 14.535156 -8.421875 14.835938 -8.539062 15.109375 -8.78125 C 15.390625 -9.019531 15.554688 -9.296875 15.609375 -9.609375 L 15.828125 -10.796875 C 15.890625 -11.140625 15.820312 -11.421875 15.625 -11.640625 C 15.425781 -11.867188 15.164062 -11.984375 14.84375 -11.984375 Z M 9.34375 -11.984375 "/></g></g></g><g fill="#40f1f2" fill-opacity="1"><g transform="translate(388.37675, 25.990378)"><g><path d="M 8.078125 -2.015625 C 7.992188 -1.597656 7.785156 -1.289062 7.453125 -1.09375 L 5.875 -0.1875 C 5.664062 -0.0625 5.4375 0 5.1875 0 L 2.03125 0 L 4.46875 -13.78125 C 4.507812 -14.1875 4.71875 -14.492188 5.09375 -14.703125 L 6.671875 -15.609375 C 6.878906 -15.734375 7.109375 -15.796875 7.359375 -15.796875 L 10.5 -15.796875 Z M 8.078125 -2.015625 "/></g></g></g><g fill="#40f1f2" fill-opacity="1"><g transform="translate(397.624203, 25.990378)"><g><path d="M 1.4375 0 L 1.890625 -2.625 L 12.625 -11.984375 L 3.546875 -11.984375 L 4.203125 -15.796875 L 21.359375 -15.796875 L 20.890625 -13.171875 L 10.0625 -3.8125 L 19.25 -3.8125 L 18.59375 0 Z M 1.4375 0 "/></g></g></g></g></g></g></g></g></svg>